<svg width="125" height="57" viewBox="0 0 125 57" fill="none" xmlns="http://www.w3.org/2000/svg">
<g clip-path="url(#clip0_2961_3093)">
<path d="M125 0H0V56.3063H125V0Z" fill="#F26F21"/>
<path d="M39.4175 20.8196H33.4522L24.3515 35.4811H29.4407L31.5329 32.0612L41.4116 32.0439L43.5499 35.4811H48.6276L39.6192 20.8196H39.4117H39.4175ZM33.677 28.5836L36.0688 24.7593H36.9852L39.3541 28.5778H33.677V28.5836ZM29.3485 20.8196H7.31445V21.1893V24.7593H15.7062V35.4811H21.0778V24.7593H29.3428V20.8196H29.3485ZM88.6901 24.7478V20.8196H69.9816V35.4811H88.6901V31.5528H74.7077V29.8487H86.961V26.3942H74.7077V24.7536H88.6901V24.7478ZM49.9878 35.4811H54.7139V29.8487H66.9673V26.3826H54.7139V24.7536H68.6963V20.8254H49.9878V35.4868V35.4811Z" fill="#231F20"/>
<path d="M117.652 29.9353C117.565 29.866 117.49 30.1952 117.461 30.2703C117.381 30.5187 117.265 30.7614 117.121 30.9347C117.012 31.056 116.862 31.1946 116.672 31.3217L116.539 31.4084L109.802 35.6832V32.2691L115.894 28.3178C117.121 27.5726 117.663 26.3017 117.68 25.0943V21.351V20.2534C117.68 19.8432 117.536 19.358 117.144 19.1558C116.637 18.8901 115.934 19.098 115.473 19.3695C114.874 19.7219 114.407 20.1436 113.773 20.5307L109.796 23.0147V15.7013C109.796 14.7943 109.917 14.1358 110.678 13.6794L114.101 11.5536L114.234 11.4669C114.424 11.3398 114.574 11.2012 114.683 11.0799C114.827 10.9066 114.949 10.6697 115.029 10.4155C115.052 10.3347 115.127 10.0112 115.219 10.0805L115.254 10.2769C115.254 10.5426 115.254 10.8141 115.254 11.0799V12.784C115.254 13.5292 115.162 13.8758 114.983 14.0838C114.804 14.3033 114.493 14.4362 114.044 14.7423L111.122 16.562L110.793 16.77V19.3407C110.793 19.6064 110.793 19.8779 110.793 20.1436L110.828 20.34C110.914 20.4094 110.989 20.0685 111.012 19.9934C111.093 19.7335 111.266 19.5197 111.427 19.3464C111.513 19.254 111.623 19.1616 111.75 19.0749L112.026 18.8958L112.073 18.867L115.882 16.3541C117.11 15.6089 117.663 14.3495 117.686 13.1422V9.86674V8.55541C117.686 8.14526 117.536 7.66001 117.15 7.45782C116.643 7.19209 115.94 7.39427 115.479 7.67156C114.989 7.9604 114.643 8.29545 114.13 8.61318L113.974 8.7056L108.747 11.9579C107.525 12.732 107.231 13.3328 107.225 14.6037V16.1288V22.9858L101.283 19.2771C101.133 19.1789 101.006 19.0692 100.903 18.9594C100.747 18.7861 100.58 18.4568 100.511 18.2373C100.488 18.1564 100.413 17.8329 100.321 17.9022L100.286 18.0987V21.5705L107.22 25.9146V29.3461L104.194 27.457L104.032 27.3588L103.859 27.2549C103.341 26.9256 102.983 26.5905 102.488 26.3017C102.027 26.0302 101.323 25.8222 100.816 26.0879C100.424 26.2901 100.28 26.7754 100.28 27.1855V28.3005V32.0669C100.28 34.2736 100.188 34.0946 102.084 35.2788L107.208 38.5889V40.6917L99.2717 35.481C98.5858 34.99 98.482 34.8918 98.4936 33.5169V24.1874L100.845 25.6258V23.4248L98.4936 21.9633V17.6134L97.2429 16.822L97.1103 16.7353C96.9086 16.6082 96.7472 16.4523 96.6262 16.3079L96.5167 16.175C96.3899 15.9901 96.2688 15.7417 96.2112 15.5626C96.1881 15.4818 96.1132 15.1583 96.0268 15.2276L95.9922 15.424C95.9922 15.6493 95.9922 34.8629 95.9922 34.8629C95.9922 36.076 96.1305 36.5324 97.1795 37.1505L107.214 43.5974V48.9698H109.79V38.6062L117.669 33.592V30.9289C117.669 30.6632 117.669 30.3916 117.669 30.1259L117.634 29.9295L117.652 29.9353ZM103.929 33.6671C103.519 33.4187 103.225 33.2858 103.047 33.049C102.868 32.8179 102.707 32.5002 102.707 31.7088V29.502L103.243 29.8197L107.214 32.2575V35.7005L103.923 33.6671H103.929ZM109.796 29.3403V25.9031L110.758 25.2965L114.735 22.8529L115.242 22.5526V24.7477C115.242 25.4987 115.127 25.8338 114.96 26.0475C114.793 26.267 114.493 26.4057 114.049 26.7061L109.796 29.3403Z" fill="#231F20"/>
</g>
<defs>
<clipPath id="clip0_2961_3093">
<rect width="125" height="56.3063" fill="white"/>
</clipPath>
</defs>
</svg>
